# xmcd CD database file
#
# Track frame offsets:
#	150
#	18732
#	40570
#
# Disc length: 876 seconds
#
# Revision: 0
# Processed by: cddbd v1.5.1PL0 Copyright (c) Steve Scherf et al.
# Submitted via: CDex 1.51
#
DISCID=1a036a03
DTITLE=THE イナズマ戦隊 - パーダラ・ブギ〜後悔するにゃ若すぎる〜
DYEAR=2004
DGENRE=Rock
TTITLE0=パーダラ・ブギ〜後悔するにゃ若すぎる〜
TTITLE1=雨上がり
TTITLE2=波風たてようぜ！！
EXTD=YEAR: 2004
EXTT0=
EXTT1=
EXTT2=
PLAYORDER=
